<svg width="207" height="245" viewBox="0 0 207 245" fill="none" xmlns="http://www.w3.org/2000/svg">
<g filter="url(#filter0_d_106_52)">
<path d="M105.975 15.1065C17.8486 50.2489 4.62159 141.415 4.63289 181C4.63354 183.262 4.54911 186.014 6.63289 187.5C195.818 322.415 141.05 138.685 130.11 138.723C242.722 14.6284 217.057 -24.8662 105.975 15.1065Z" fill="url(#paint0_linear_106_52)" shape-rendering="crispEdges"/>
</g>
<path d="M4.5 66C4.5 54.9543 13.4543 46 24.5 46H150.5C161.546 46 170.5 54.9543 170.5 66V168C170.5 179.046 161.546 188 150.5 188H8.5C6.29086 188 4.5 186.209 4.5 184V66Z" fill="black" fill-opacity="0.65"/>
<path d="M81.892 61.4C83.0867 61.4 84.0253 61.784 84.708 62.552C85.3907 63.2347 85.732 64.1307 85.732 65.24V118.232C85.732 124.547 84.2387 130.264 81.252 135.384C78.2653 140.504 74.2547 144.6 69.22 147.672C64.1853 150.659 58.5107 152.152 52.196 152.152C45.8813 152.152 40.164 150.659 35.044 147.672C30.0093 144.6 25.9987 140.504 23.012 135.384C20.0253 130.264 18.532 124.547 18.532 118.232V65.24C18.532 64.1307 18.8733 63.2347 19.556 62.552C20.324 61.784 21.348 61.4 22.628 61.4C23.652 61.4 24.548 61.784 25.316 62.552C26.084 63.2347 26.468 64.1307 26.468 65.24V118.232C26.468 123.181 27.62 127.619 29.924 131.544C32.3133 135.469 35.4707 138.627 39.396 141.016C43.3213 143.32 47.588 144.472 52.196 144.472C56.9747 144.472 61.3267 143.32 65.252 141.016C69.1773 138.627 72.292 135.469 74.596 131.544C76.9853 127.619 78.18 123.181 78.18 118.232V65.24C78.18 64.1307 78.5213 63.2347 79.204 62.552C79.8867 61.784 80.7827 61.4 81.892 61.4ZM128.726 85.08C134.529 85.08 139.649 86.5307 144.086 89.432C148.609 92.248 152.193 96.1733 154.838 101.208C157.483 106.157 158.806 111.875 158.806 118.36C158.806 124.845 157.483 130.605 154.838 135.64C152.193 140.675 148.609 144.643 144.086 147.544C139.563 150.445 134.486 151.896 128.854 151.896C125.867 151.896 123.009 151.469 120.278 150.616C117.633 149.677 115.201 148.44 112.982 146.904C110.763 145.368 108.801 143.576 107.094 141.528C105.387 139.395 104.022 137.091 102.998 134.616L105.302 132.952V172.76C105.302 173.784 104.918 174.68 104.15 175.448C103.467 176.216 102.571 176.6 101.462 176.6C100.353 176.6 99.414 176.216 98.646 175.448C97.9633 174.68 97.622 173.784 97.622 172.76V89.304C97.622 88.1947 97.9633 87.256 98.646 86.488C99.3287 85.72 100.267 85.336 101.462 85.336C102.571 85.336 103.467 85.72 104.15 86.488C104.918 87.256 105.302 88.1947 105.302 89.304V103.128L103.51 102.104C104.363 99.4587 105.601 97.112 107.222 95.064C108.929 92.9307 110.891 91.1387 113.11 89.688C115.329 88.152 117.761 87 120.406 86.232C123.051 85.464 125.825 85.08 128.726 85.08ZM128.086 92.248C123.478 92.248 119.425 93.4 115.926 95.704C112.427 97.9227 109.654 100.995 107.606 104.92C105.643 108.76 104.662 113.24 104.662 118.36C104.662 123.395 105.643 127.917 107.606 131.928C109.654 135.939 112.427 139.096 115.926 141.4C119.425 143.619 123.478 144.728 128.086 144.728C132.609 144.728 136.577 143.619 139.99 141.4C143.489 139.096 146.262 135.939 148.31 131.928C150.358 127.917 151.382 123.395 151.382 118.36C151.382 113.325 150.358 108.845 148.31 104.92C146.262 100.995 143.489 97.9227 139.99 95.704C136.577 93.4 132.609 92.248 128.086 92.248Z" fill="white"/>
<defs>
<filter id="filter0_d_106_52" x="0.632324" y="0.1073" width="206.326" height="244.876" filterUnits="userSpaceOnUse" color-interpolation-filters="sRGB">
<feFlood flood-opacity="0" result="BackgroundImageFix"/>
<feColorMatrix in="SourceAlpha" type="matrix" values="0 0 0 0 0 0 0 0 0 0 0 0 0 0 0 0 0 0 127 0" result="hardAlpha"/>
<feOffset dy="4"/>
<feGaussianBlur stdDeviation="2"/>
<feComposite in2="hardAlpha" operator="out"/>
<feColorMatrix type="matrix" values="0 0 0 0 0 0 0 0 0 0 0 0 0 0 0 0 0 0 0.25 0"/>
<feBlend mode="normal" in2="BackgroundImageFix" result="effect1_dropShadow_106_52"/>
<feBlend mode="normal" in="SourceGraphic" in2="effect1_dropShadow_106_52" result="shape"/>
</filter>
<linearGradient id="paint0_linear_106_52" x1="51" y1="148" x2="229.046" y2="32.9514" gradientUnits="userSpaceOnUse">
<stop stop-color="#ED8526"/>
<stop offset="0.359989" stop-color="#FF0101" stop-opacity="0.81"/>
<stop offset="1" stop-color="#FAFF00"/>
</linearGradient>
</defs>
</svg>
