<svg width="457" height="252" viewBox="0 0 457 252" fill="none" xmlns="http://www.w3.org/2000/svg">
<g filter="url(#filter0_d_101_39)">
<path d="M355.872 20.4275C267.746 55.5698 254.519 146.736 254.53 186.321C254.531 188.583 254.446 191.335 256.53 192.821C445.715 327.736 390.947 144.006 380.007 144.044C492.619 19.9493 466.954 -19.5453 355.872 20.4275Z" fill="url(#paint0_linear_101_39)" shape-rendering="crispEdges"/>
</g>
<path d="M254.397 71.3209C254.397 60.2752 263.351 51.3209 274.397 51.3209H400.397C411.443 51.3209 420.397 60.2752 420.397 71.3209V173.321C420.397 184.367 411.443 193.321 400.397 193.321H258.397C256.188 193.321 254.397 191.53 254.397 189.321V71.3209Z" fill="black" fill-opacity="0.65"/>
<path d="M41.133 157.601C34.6476 157.686 29.0156 156.662 24.237 154.529C19.4583 152.396 14.893 149.196 10.541 144.929C10.1143 144.588 9.73031 144.161 9.38897 143.649C9.13297 143.137 9.00497 142.54 9.00497 141.857C9.00497 140.833 9.38897 139.894 10.157 139.041C11.0103 138.188 11.949 137.761 12.973 137.761C13.997 137.761 14.9356 138.188 15.789 139.041C19.117 142.625 22.8716 145.356 27.053 147.233C31.3196 149.11 35.885 150.049 40.749 150.049C44.845 150.049 48.4716 149.409 51.629 148.129C54.8716 146.849 57.4316 145.014 59.309 142.625C61.1863 140.236 62.125 137.462 62.125 134.305C62.125 130.38 61.0583 127.222 58.925 124.833C56.7916 122.358 53.9756 120.353 50.477 118.817C46.9783 117.196 43.0956 115.745 38.829 114.465C35.3303 113.441 32.0023 112.289 28.845 111.009C25.6876 109.644 22.8716 108.022 20.397 106.145C17.9223 104.182 16.0023 101.793 14.637 98.9769C13.2716 96.1609 12.589 92.7476 12.589 88.7369C12.589 84.2143 13.7836 80.2036 16.173 76.7049C18.5623 73.2063 21.933 70.4756 26.285 68.5129C30.7223 66.4649 35.8423 65.4409 41.645 65.4409C46.6796 65.4409 51.501 66.2943 56.109 68.0009C60.8023 69.7076 64.5143 72.2249 67.245 75.5529C68.525 76.9183 69.165 78.1556 69.165 79.2649C69.165 80.1183 68.7383 80.9716 67.885 81.8249C67.0316 82.6783 66.093 83.1049 65.069 83.1049C64.2156 83.1049 63.4903 82.8063 62.893 82.2089C61.4423 80.4169 59.6076 78.8383 57.389 77.4729C55.1703 76.0223 52.6956 74.9129 49.965 74.1449C47.3196 73.3769 44.5463 72.9929 41.645 72.9929C37.6343 72.9929 34.0076 73.6329 30.765 74.9129C27.6076 76.1076 25.0903 77.8569 23.213 80.1609C21.421 82.4649 20.525 85.2383 20.525 88.4809C20.525 92.0649 21.549 95.0089 23.597 97.3129C25.645 99.6169 28.333 101.537 31.661 103.073C34.989 104.524 38.5303 105.889 42.285 107.169C45.9543 108.193 49.453 109.388 52.781 110.753C56.1943 112.033 59.181 113.654 61.741 115.617C64.3863 117.58 66.4343 120.054 67.885 123.041C69.421 126.028 70.189 129.782 70.189 134.305C70.189 138.657 68.9516 142.582 66.477 146.081C64.0023 149.58 60.589 152.353 56.237 154.401C51.9703 156.449 46.9356 157.516 41.133 157.601ZM140.912 123.553C140.912 130.038 139.504 135.884 136.688 141.089C133.872 146.209 130.032 150.262 125.168 153.249C120.304 156.15 114.757 157.601 108.528 157.601C102.469 157.601 96.9653 156.15 92.016 153.249C87.152 150.262 83.2693 146.209 80.368 141.089C77.552 135.884 76.144 130.038 76.144 123.553C76.144 116.982 77.552 111.137 80.368 106.017C83.2693 100.897 87.152 96.8436 92.016 93.8569C96.9653 90.8703 102.469 89.3769 108.528 89.3769C114.757 89.3769 120.304 90.8703 125.168 93.8569C130.032 96.8436 133.872 100.897 136.688 106.017C139.504 111.137 140.912 116.982 140.912 123.553ZM133.232 123.553C133.232 118.348 132.165 113.74 130.032 109.729C127.899 105.633 124.955 102.433 121.2 100.129C117.531 97.7396 113.307 96.5449 108.528 96.5449C103.92 96.5449 99.7386 97.7396 95.984 100.129C92.2293 102.433 89.2426 105.633 87.024 109.729C84.8906 113.74 83.824 118.348 83.824 123.553C83.824 128.758 84.8906 133.366 87.024 137.377C89.2426 141.388 92.2293 144.588 95.984 146.977C99.7386 149.281 103.92 150.433 108.528 150.433C113.307 150.433 117.531 149.281 121.2 146.977C124.955 144.588 127.899 141.388 130.032 137.377C132.165 133.366 133.232 128.758 133.232 123.553ZM211.762 123.553C211.762 130.038 210.354 135.884 207.538 141.089C204.722 146.209 200.882 150.262 196.018 153.249C191.154 156.15 185.607 157.601 179.378 157.601C173.319 157.601 167.815 156.15 162.866 153.249C158.002 150.262 154.119 146.209 151.218 141.089C148.402 135.884 146.994 130.038 146.994 123.553C146.994 116.982 148.402 111.137 151.218 106.017C154.119 100.897 158.002 96.8436 162.866 93.8569C167.815 90.8703 173.319 89.3769 179.378 89.3769C185.607 89.3769 191.154 90.8703 196.018 93.8569C200.882 96.8436 204.722 100.897 207.538 106.017C210.354 111.137 211.762 116.982 211.762 123.553ZM204.082 123.553C204.082 118.348 203.015 113.74 200.882 109.729C198.749 105.633 195.805 102.433 192.05 100.129C188.381 97.7396 184.157 96.5449 179.378 96.5449C174.77 96.5449 170.589 97.7396 166.834 100.129C163.079 102.433 160.093 105.633 157.874 109.729C155.741 113.74 154.674 118.348 154.674 123.553C154.674 128.758 155.741 133.366 157.874 137.377C160.093 141.388 163.079 144.588 166.834 146.977C170.589 149.281 174.77 150.433 179.378 150.433C184.157 150.433 188.381 149.281 192.05 146.977C195.805 144.588 198.749 141.388 200.882 137.377C203.015 133.366 204.082 128.758 204.082 123.553ZM217.46 91.1689H247.284C248.308 91.1689 249.161 91.5529 249.844 92.3209C250.527 93.0036 250.868 93.8569 250.868 94.8809C250.868 95.8196 250.527 96.6303 249.844 97.3129C249.161 97.9956 248.308 98.3369 247.284 98.3369H217.46C216.436 98.3369 215.54 97.9956 214.772 97.3129C214.089 96.5449 213.748 95.6916 213.748 94.7529C213.748 93.7289 214.089 92.8756 214.772 92.1929C215.54 91.5103 216.436 91.1689 217.46 91.1689ZM230.644 73.1209C231.753 73.1209 232.649 73.5049 233.332 74.2729C234.1 75.0409 234.484 75.9369 234.484 76.9609V141.217C234.484 143.606 234.783 145.398 235.38 146.593C236.063 147.788 236.916 148.598 237.94 149.025C238.964 149.366 239.988 149.537 241.012 149.537C241.695 149.537 242.292 149.452 242.804 149.281C243.401 149.025 244.041 148.897 244.724 148.897C245.492 148.897 246.132 149.196 246.644 149.793C247.241 150.39 247.54 151.158 247.54 152.097C247.54 153.292 246.857 154.316 245.492 155.169C244.127 155.937 242.505 156.321 240.628 156.321C239.86 156.321 238.708 156.278 237.172 156.193C235.636 156.022 234.057 155.553 232.436 154.785C230.815 153.932 229.449 152.481 228.34 150.433C227.316 148.385 226.804 145.441 226.804 141.601V76.9609C226.804 75.9369 227.145 75.0409 227.828 74.2729C228.596 73.5049 229.535 73.1209 230.644 73.1209Z" fill="black"/>
<path d="M331.789 66.7209C332.984 66.7209 333.922 67.1049 334.605 67.8729C335.288 68.5556 335.629 69.4516 335.629 70.5609V123.553C335.629 129.868 334.136 135.585 331.149 140.705C328.162 145.825 324.152 149.921 319.117 152.993C314.082 155.98 308.408 157.473 302.093 157.473C295.778 157.473 290.061 155.98 284.941 152.993C279.906 149.921 275.896 145.825 272.909 140.705C269.922 135.585 268.429 129.868 268.429 123.553V70.5609C268.429 69.4516 268.77 68.5556 269.453 67.8729C270.221 67.1049 271.245 66.7209 272.525 66.7209C273.549 66.7209 274.445 67.1049 275.213 67.8729C275.981 68.5556 276.365 69.4516 276.365 70.5609V123.553C276.365 128.502 277.517 132.94 279.821 136.865C282.21 140.79 285.368 143.948 289.293 146.337C293.218 148.641 297.485 149.793 302.093 149.793C306.872 149.793 311.224 148.641 315.149 146.337C319.074 143.948 322.189 140.79 324.493 136.865C326.882 132.94 328.077 128.502 328.077 123.553V70.5609C328.077 69.4516 328.418 68.5556 329.101 67.8729C329.784 67.1049 330.68 66.7209 331.789 66.7209ZM378.623 90.4009C384.426 90.4009 389.546 91.8516 393.983 94.7529C398.506 97.5689 402.09 101.494 404.735 106.529C407.38 111.478 408.703 117.196 408.703 123.681C408.703 130.166 407.38 135.926 404.735 140.961C402.09 145.996 398.506 149.964 393.983 152.865C389.46 155.766 384.383 157.217 378.751 157.217C375.764 157.217 372.906 156.79 370.175 155.937C367.53 154.998 365.098 153.761 362.879 152.225C360.66 150.689 358.698 148.897 356.991 146.849C355.284 144.716 353.919 142.412 352.895 139.937L355.199 138.273V178.081C355.199 179.105 354.815 180.001 354.047 180.769C353.364 181.537 352.468 181.921 351.359 181.921C350.25 181.921 349.311 181.537 348.543 180.769C347.86 180.001 347.519 179.105 347.519 178.081V94.6249C347.519 93.5156 347.86 92.5769 348.543 91.8089C349.226 91.0409 350.164 90.6569 351.359 90.6569C352.468 90.6569 353.364 91.0409 354.047 91.8089C354.815 92.5769 355.199 93.5156 355.199 94.6249V108.449L353.407 107.425C354.26 104.78 355.498 102.433 357.119 100.385C358.826 98.2516 360.788 96.4596 363.007 95.0089C365.226 93.4729 367.658 92.3209 370.303 91.5529C372.948 90.7849 375.722 90.4009 378.623 90.4009ZM377.983 97.5689C373.375 97.5689 369.322 98.7209 365.823 101.025C362.324 103.244 359.551 106.316 357.503 110.241C355.54 114.081 354.559 118.561 354.559 123.681C354.559 128.716 355.54 133.238 357.503 137.249C359.551 141.26 362.324 144.417 365.823 146.721C369.322 148.94 373.375 150.049 377.983 150.049C382.506 150.049 386.474 148.94 389.887 146.721C393.386 144.417 396.159 141.26 398.207 137.249C400.255 133.238 401.279 128.716 401.279 123.681C401.279 118.646 400.255 114.166 398.207 110.241C396.159 106.316 393.386 103.244 389.887 101.025C386.474 98.7209 382.506 97.5689 377.983 97.5689Z" fill="white"/>
<defs>
<filter id="filter0_d_101_39" x="250.53" y="5.42816" width="206.326" height="244.876" filterUnits="userSpaceOnUse" color-interpolation-filters="sRGB">
<feFlood flood-opacity="0" result="BackgroundImageFix"/>
<feColorMatrix in="SourceAlpha" type="matrix" values="0 0 0 0 0 0 0 0 0 0 0 0 0 0 0 0 0 0 127 0" result="hardAlpha"/>
<feOffset dy="4"/>
<feGaussianBlur stdDeviation="2"/>
<feComposite in2="hardAlpha" operator="out"/>
<feColorMatrix type="matrix" values="0 0 0 0 0 0 0 0 0 0 0 0 0 0 0 0 0 0 0.25 0"/>
<feBlend mode="normal" in2="BackgroundImageFix" result="effect1_dropShadow_101_39"/>
<feBlend mode="normal" in="SourceGraphic" in2="effect1_dropShadow_101_39" result="shape"/>
</filter>
<linearGradient id="paint0_linear_101_39" x1="300.897" y1="153.321" x2="478.943" y2="38.2723" gradientUnits="userSpaceOnUse">
<stop stop-color="#ED8526"/>
<stop offset="0.359989" stop-color="#FF0101" stop-opacity="0.81"/>
<stop offset="1" stop-color="#FAFF00"/>
</linearGradient>
</defs>
</svg>
